HIERARCHY
ROOT pelvis
{
  OFFSET 0 100 0
  CHANNELS 6 Xposition Yposition Zposition Zrotation Xrotation Yrotation
  JOINT pelvis_right_femur
  {
    OFFSET -10.78128 -3.44521 -0.5502486
    CHANNELS 3 Zrotation Xrotation Yrotation
    JOINT right_femur_tibia
    {
      OFFSET -0.8047443 -44.0398 -0.1307829
      CHANNELS 3 Zrotation Xrotation Yrotation
      JOINT right_tibia_foot
      {
        OFFSET 3.006224 -47.83518 -5
        CHANNELS 3 Zrotation Xrotation Yrotation
        End Site
        {
          OFFSET 0 -5 15
        }
      }
    }
  }
  JOINT pelvis_left_femur
  {
    OFFSET 10.78128 -3.44521 -0.5502486
    CHANNELS 3 Zrotation Xrotation Yrotation
    JOINT left_femur_tibia
    {
      OFFSET 0.8047443 -44.0398 -0.1307829
      CHANNELS 3 Zrotation Xrotation Yrotation
      JOINT left_tibia_foot
      {
        OFFSET -4.370144 -48.10324 -4.275266
        CHANNELS 3 Zrotation Xrotation Yrotation
        End Site
        {
          OFFSET 0 -5 15
        }
      }
    }
  }
  JOINT pelvis_spine1
  {
    OFFSET 0 6.468898 -3.129235
    CHANNELS 3 Zrotation Xrotation Yrotation
    JOINT spine1
    {
      OFFSET 0 23.15396 4.99043
      CHANNELS 3 Zrotation Xrotation Yrotation
      JOINT spine2
      {
        OFFSET 0 20.79997 -5.064912
        CHANNELS 3 Zrotation Xrotation Yrotation
        JOINT neck
        {
          OFFSET 0 14.38658 9.616178
          CHANNELS 3 Zrotation Xrotation Yrotation
          End Site
          {
            OFFSET 0 20 0
          }
        }
      }
      JOINT right_manubrium
      {
        OFFSET -5.722621 16.35077 3.967754
        CHANNELS 3 Zrotation Xrotation Yrotation
        JOINT right_clavicle
        {
          OFFSET -13.16364 1.694482 -4.693211
          CHANNELS 3 Zrotation Xrotation Yrotation
          JOINT right_humerus
          {
            OFFSET -28.5034 -0.3100689 -2.792744
            CHANNELS 3 Zrotation Xrotation Yrotation
            JOINT right_radius
            {
              OFFSET -25.15693 0.02248979 -1.271978
              CHANNELS 3 Zrotation Xrotation Yrotation
              End Site
              {
                OFFSET -15 0 0
              }
            }
          }
        }
      }
      JOINT left_manubrium
      {
        OFFSET 5.722621 16.35077 3.967754
        CHANNELS 3 Zrotation Xrotation Yrotation
        JOINT left_clavicle
        {
          OFFSET 13.16364 1.694482 -4.693211
          CHANNELS 3 Zrotation Xrotation Yrotation
          JOINT left_humerus
          {
            OFFSET 29.39168 -1.063119 -2.237045
            CHANNELS 3 Zrotation Xrotation Yrotation
            JOINT left_radius
            {
              OFFSET 24.59957 -0.9528479 0.9047498
              CHANNELS 3 Zrotation Xrotation Yrotation
              End Site
              {
                OFFSET 15 -0 -0
              }
            }
          }
        }
      }
    }
  }
}
MOTION
Frames: 7
Frame Time: 0.0416666666667
0 103.5113 0 0.457838 1.079413 0.4627791 3.953569 -20.19669 11.0167 -0 42.19261 -0 -3.478946 -15.38739 -5.142143 -6.669639 9.038778 -23.03525 -0 1.628471 -0 3.228513 -20.11033 23.07285 -4.264745 -1.844692 4.113229 3.198176 8.306266 -8.584737 0.3754834 21.22985 8.36892 3.653232 -25.26637 9.244258 9.496156 -19.39069 12.22303 83.61659 41.39921 -19.27066 -0 0 17.29723 -7.679265 11.49758 7.138955 3.756032 -18.19421 -1.539169 -97.45272 36.67518 27.70909 0 0 -19.10134 -6.1621 13.14671 23.60778
0.4081957 103.5964 1.136972 0.6102389 0.6020961 0.9956043 3.563341 -19.9285 10.83732 -0 43.60976 -0 -3.366124 -14.4571 -5.410069 -6.752412 9.109317 -22.63457 -0 2.012599 -0 3.05134 -20.06901 22.8489 -4.389958 -1.761441 4.063505 3.105071 8.551224 -8.616121 0.3378709 21.30115 8.370493 3.630755 -24.94658 9.12846 9.530404 -19.32652 12.27309 83.93313 41.25131 -19.4896 -0 0 17.01425 -8.400005 11.82807 7.485771 3.596348 -18.32395 -1.836026 -97.04265 36.79821 27.3678 0 0 -19.2951 -6.587988 12.7805 24.194
0.7713344 103.4998 2.654841 0.4455035 0.9307552 1.530643 3.781078 -22.14673 9.965023 -0 39.85048 -0 -3.3529 -13.53985 -5.383952 -6.432647 10.64783 -21.78799 -0 1.752177 -0 2.469032 -20.62799 21.81126 -4.160389 -1.704644 3.780186 3.158907 8.411642 -8.821979 0.3489883 21.16273 8.408907 3.617961 -24.89947 9.141435 8.951188 -18.91543 12.05894 84.79749 40.56362 -20.45027 -0 0 16.11868 -8.967489 11.90857 7.532747 4.033775 -18.89903 -1.950164 -95.30438 36.13398 25.13192 0 0 -20.90428 -5.732446 12.71427 22.96695
1.102799 103.2354 4.516896 0.3160999 1.134945 2.078133 3.894048 -23.99854 9.173468 -0 36.76755 -0 -3.331834 -12.58851 -5.402336 -6.180882 11.97883 -20.97607 -0 1.73261 -0 1.890291 -21.06189 20.84357 -3.967874 -1.639232 3.527884 3.188825 8.326461 -8.999261 0.3566921 21.05567 8.43759 3.602494 -24.80438 9.13264 8.448511 -18.53557 11.88259 85.58131 39.92244 -21.29232 -0 0 15.2828 -9.576601 12.02897 7.626335 4.385297 -19.41451 -2.090083 -93.7778 35.51197 23.16392 0 0 -22.31482 -5.045763 12.58621 21.97986
1.405425 102.8088 6.739875 0.1107322 1.519671 2.623126 4.127349 -25.95309 8.48027 -0 33.24421 -0 -3.299681 -11.91653 -5.385362 -5.896806 13.30023 -20.25343 -0 1.773523 -0 1.200069 -21.4611 19.81278 -3.721882 -1.586856 3.28751 3.255523 8.143333 -9.183725 0.3696172 20.9032 8.475792 3.590064 -24.81512 9.158383 7.973844 -18.13773 11.69051 86.26099 39.39378 -22.09751 -0 0 14.5188 -9.979549 12.1234 7.643681 4.752104 -19.86712 -2.126139 -92.43563 34.92698 21.37108 0 0 -23.70765 -4.385072 12.45516 21.04544
1.683697 102.2304 9.339601 -0.148986 1.98852 3.156294 4.433384 -27.85384 7.86126 -0 29.58665 -0 -3.286537 -11.36794 -5.340136 -5.601327 14.55718 -19.58387 -0 2.088365 -0 0.4125007 -21.75742 18.73299 -3.433418 -1.541391 3.060822 3.336882 7.910556 -9.357458 0.3891361 20.73134 8.514882 3.582711 -24.8885 9.20067 7.523438 -17.72388 11.49495 86.86863 38.92899 -22.85101 -0 0 13.7905 -10.25827 12.19794 7.614246 5.108691 -20.26153 -2.099483 -91.25454 34.34792 19.74512 0 0 -25.00738 -3.738292 12.32467 20.14719
1.943999 101.5322 12.3359 -0.4822515 2.571404 3.666891 4.852487 -29.6125 7.376912 -0 25.89414 -0 -3.293099 -10.9842 -5.261507 -5.286529 15.68267 -19.00047 -0 2.831091 -0 -0.5178687 -21.88374 17.59051 -3.089402 -1.505401 2.859268 3.436703 7.611163 -9.51276 0.4156167 20.53115 8.558175 3.584039 -25.05373 9.265872 7.128488 -17.29315 11.29749 87.36685 38.58757 -23.52507 -0 0 13.13131 -10.36023 12.257 7.528693 5.429844 -20.55265 -1.985362 -90.31631 33.84069 18.40422 0 0 -26.13073 -3.161224 12.18421 19.37568
